# xmcd
#
# Track frame offsets:
#	182
#	16410
#	32912
#	58315
#	82620
#	105432
#	131165
#
# Disc length: 2084 seconds
# Revision: 0
# Processed by: cddbd v1.5.2PL0 Copyright (c) Steve Scherf et al.
# Submitted via: dBpowerAMP V12.0
#
DISCID=52082207
DTITLE=I To I - The Right Time
DYEAR=1993
DGENRE=House
TTITLE0=The Right Time [Station Radio Edit]
TTITLE1=The Right Time [The Correct Moment Radio]
TTITLE2=The Right Time [The Correct Moment Club]
TTITLE3=The Right Time [Extended Mix]
TTITLE4=The Right Time [Fiction Remix]
TTITLE5=The Right Time [The Correct Moment Dub]
TTITLE6=The Right Time [The Correct Moment Instrumental]
EXTD=
EXTT0=
EXTT1=
EXTT2=
EXTT3=
EXTT4=
EXTT5=
EXTT6=
PLAYORDER=
